<svg width="1162" height="241" viewBox="0 0 1162 241" fill="none" xmlns="http://www.w3.org/2000/svg">
<rect y="197" width="558" height="15" rx="5" fill="#5B69EB"/>
<rect y="226" width="364" height="15" rx="5" fill="#39AABA"/>
<rect x="387" y="226" width="775" height="15" rx="5" fill="#FE891E"/>
<rect x="583" y="198" width="211" height="15" rx="5" fill="#63D72D"/>
<rect x="314" y="154" width="480" height="15" rx="5" fill="#21C7FB"/>
<rect y="154" width="293" height="15" rx="5" fill="#EB625B"/>
<rect x="281" y="169" width="55" height="12" rx="6" transform="rotate(-90 281 169)" fill="#EB625B"/>
<rect x="74" width="423" height="121" rx="10" fill="#EB625B"/>
<path d="M116.801 70.664H127.553V77H108.593V43.304H116.801V70.664ZM143.66 77.384C141.036 77.384 138.668 76.824 136.556 75.704C134.476 74.584 132.828 72.984 131.612 70.904C130.428 68.824 129.836 66.392 129.836 63.608C129.836 60.856 130.444 58.44 131.66 56.36C132.876 54.248 134.54 52.632 136.652 51.512C138.764 50.392 141.132 49.832 143.756 49.832C146.38 49.832 148.748 50.392 150.86 51.512C152.972 52.632 154.636 54.248 155.852 56.36C157.068 58.44 157.676 60.856 157.676 63.608C157.676 66.36 157.052 68.792 155.804 70.904C154.588 72.984 152.908 74.584 150.764 75.704C148.652 76.824 146.284 77.384 143.66 77.384ZM143.66 70.28C145.228 70.28 146.556 69.704 147.644 68.552C148.764 67.4 149.324 65.752 149.324 63.608C149.324 61.464 148.78 59.816 147.692 58.664C146.636 57.512 145.324 56.936 143.756 56.936C142.156 56.936 140.828 57.512 139.772 58.664C138.716 59.784 138.188 61.432 138.188 63.608C138.188 65.752 138.7 67.4 139.724 68.552C140.78 69.704 142.092 70.28 143.66 70.28ZM174.223 77.384C171.599 77.384 169.231 76.824 167.119 75.704C165.039 74.584 163.391 72.984 162.175 70.904C160.991 68.824 160.399 66.392 160.399 63.608C160.399 60.856 161.007 58.44 162.223 56.36C163.439 54.248 165.103 52.632 167.215 51.512C169.327 50.392 171.695 49.832 174.319 49.832C176.943 49.832 179.311 50.392 181.423 51.512C183.535 52.632 185.199 54.248 186.415 56.36C187.631 58.44 188.239 60.856 188.239 63.608C188.239 66.36 187.615 68.792 186.367 70.904C185.151 72.984 183.471 74.584 181.327 75.704C179.215 76.824 176.847 77.384 174.223 77.384ZM174.223 70.28C175.791 70.28 177.119 69.704 178.207 68.552C179.327 67.4 179.887 65.752 179.887 63.608C179.887 61.464 179.343 59.816 178.255 58.664C177.199 57.512 175.887 56.936 174.319 56.936C172.719 56.936 171.391 57.512 170.335 58.664C169.279 59.784 168.751 61.432 168.751 63.608C168.751 65.752 169.263 67.4 170.287 68.552C171.343 69.704 172.655 70.28 174.223 70.28ZM208.961 77L200.801 65.768V77H192.593V41.48H200.801V61.112L208.913 50.216H219.041L207.905 63.656L219.137 77H208.961ZM226.393 47.432C224.953 47.432 223.769 47.016 222.841 46.184C221.945 45.32 221.497 44.264 221.497 43.016C221.497 41.736 221.945 40.68 222.841 39.848C223.769 38.984 224.953 38.552 226.393 38.552C227.801 38.552 228.953 38.984 229.849 39.848C230.777 40.68 231.241 41.736 231.241 43.016C231.241 44.264 230.777 45.32 229.849 46.184C228.953 47.016 227.801 47.432 226.393 47.432ZM230.473 50.216V77H222.265V50.216H230.473ZM252.741 49.928C255.877 49.928 258.373 50.952 260.229 53C262.117 55.016 263.061 57.8 263.061 61.352V77H254.901V62.456C254.901 60.664 254.437 59.272 253.509 58.28C252.581 57.288 251.333 56.792 249.765 56.792C248.197 56.792 246.949 57.288 246.021 58.28C245.093 59.272 244.629 60.664 244.629 62.456V77H236.421V50.216H244.629V53.768C245.461 52.584 246.581 51.656 247.989 50.984C249.397 50.28 250.981 49.928 252.741 49.928ZM278.941 49.832C280.829 49.832 282.477 50.216 283.885 50.984C285.325 51.752 286.429 52.76 287.197 54.008V50.216H295.405V76.952C295.405 79.416 294.909 81.64 293.917 83.624C292.957 85.64 291.469 87.24 289.453 88.424C287.469 89.608 284.989 90.2 282.013 90.2C278.045 90.2 274.829 89.256 272.365 87.368C269.901 85.512 268.493 82.984 268.141 79.784H276.253C276.509 80.808 277.117 81.608 278.077 82.184C279.037 82.792 280.221 83.096 281.629 83.096C283.325 83.096 284.669 82.6 285.661 81.608C286.685 80.648 287.197 79.096 287.197 76.952V73.16C286.397 74.408 285.293 75.432 283.885 76.232C282.477 77 280.829 77.384 278.941 77.384C276.733 77.384 274.733 76.824 272.941 75.704C271.149 74.552 269.725 72.936 268.669 70.856C267.645 68.744 267.133 66.312 267.133 63.56C267.133 60.808 267.645 58.392 268.669 56.312C269.725 54.232 271.149 52.632 272.941 51.512C274.733 50.392 276.733 49.832 278.941 49.832ZM287.197 63.608C287.197 61.56 286.621 59.944 285.469 58.76C284.349 57.576 282.973 56.984 281.341 56.984C279.709 56.984 278.317 57.576 277.165 58.76C276.045 59.912 275.485 61.512 275.485 63.56C275.485 65.608 276.045 67.24 277.165 68.456C278.317 69.64 279.709 70.232 281.341 70.232C282.973 70.232 284.349 69.64 285.469 68.456C286.621 67.272 287.197 65.656 287.197 63.608ZM326.443 70.04V77H322.267C319.291 77 316.971 76.28 315.307 74.84C313.643 73.368 312.811 70.984 312.811 67.688V57.032H309.547V50.216H312.811V43.688H321.019V50.216H326.395V57.032H321.019V67.784C321.019 68.584 321.211 69.16 321.595 69.512C321.979 69.864 322.619 70.04 323.515 70.04H326.443ZM343.207 77.384C340.583 77.384 338.215 76.824 336.103 75.704C334.023 74.584 332.375 72.984 331.159 70.904C329.975 68.824 329.383 66.392 329.383 63.608C329.383 60.856 329.991 58.44 331.207 56.36C332.423 54.248 334.087 52.632 336.199 51.512C338.311 50.392 340.679 49.832 343.303 49.832C345.927 49.832 348.295 50.392 350.407 51.512C352.519 52.632 354.183 54.248 355.399 56.36C356.615 58.44 357.223 60.856 357.223 63.608C357.223 66.36 356.599 68.792 355.351 70.904C354.135 72.984 352.455 74.584 350.311 75.704C348.199 76.824 345.831 77.384 343.207 77.384ZM343.207 70.28C344.775 70.28 346.103 69.704 347.191 68.552C348.311 67.4 348.871 65.752 348.871 63.608C348.871 61.464 348.327 59.816 347.239 58.664C346.183 57.512 344.871 56.936 343.303 56.936C341.703 56.936 340.375 57.512 339.319 58.664C338.263 59.784 337.735 61.432 337.735 63.608C337.735 65.752 338.247 67.4 339.271 68.552C340.327 69.704 341.639 70.28 343.207 70.28ZM388.213 49.928C391.285 49.928 393.749 50.952 395.605 53C397.461 55.016 398.389 57.8 398.389 61.352V77H390.229V62.456C390.229 60.664 389.765 59.272 388.837 58.28C387.909 57.288 386.661 56.792 385.093 56.792C383.525 56.792 382.277 57.288 381.349 58.28C380.421 59.272 379.957 60.664 379.957 62.456V77H371.749V41.48H379.957V53.816C380.789 52.632 381.925 51.688 383.365 50.984C384.805 50.28 386.421 49.928 388.213 49.928ZM408.221 47.432C406.781 47.432 405.597 47.016 404.669 46.184C403.773 45.32 403.325 44.264 403.325 43.016C403.325 41.736 403.773 40.68 404.669 39.848C405.597 38.984 406.781 38.552 408.221 38.552C409.629 38.552 410.781 38.984 411.677 39.848C412.605 40.68 413.069 41.736 413.069 43.016C413.069 44.264 412.605 45.32 411.677 46.184C410.781 47.016 409.629 47.432 408.221 47.432ZM412.301 50.216V77H404.093V50.216H412.301ZM426.457 54.68C427.417 53.208 428.617 52.056 430.057 51.224C431.497 50.36 433.097 49.928 434.857 49.928V58.616H432.601C430.553 58.616 429.017 59.064 427.993 59.96C426.969 60.824 426.457 62.36 426.457 64.568V77H418.249V50.216H426.457V54.68ZM464.029 63.176C464.029 63.944 463.981 64.744 463.885 65.576H445.309C445.437 67.24 445.965 68.52 446.893 69.416C447.853 70.28 449.021 70.712 450.397 70.712C452.445 70.712 453.869 69.848 454.669 68.12H463.405C462.957 69.88 462.141 71.464 460.957 72.872C459.805 74.28 458.349 75.384 456.589 76.184C454.829 76.984 452.861 77.384 450.685 77.384C448.061 77.384 445.725 76.824 443.677 75.704C441.629 74.584 440.029 72.984 438.877 70.904C437.725 68.824 437.149 66.392 437.149 63.608C437.149 60.824 437.709 58.392 438.829 56.312C439.981 54.232 441.581 52.632 443.629 51.512C445.677 50.392 448.029 49.832 450.685 49.832C453.277 49.832 455.581 50.376 457.597 51.464C459.613 52.552 461.181 54.104 462.301 56.12C463.453 58.136 464.029 60.488 464.029 63.176ZM455.629 61.016C455.629 59.608 455.149 58.488 454.189 57.656C453.229 56.824 452.029 56.408 450.589 56.408C449.213 56.408 448.045 56.808 447.085 57.608C446.157 58.408 445.581 59.544 445.357 61.016H455.629Z" fill="white"/>
<rect width="343" height="15" rx="5" transform="matrix(-1 0 0 1 1162 182)" fill="#5B69EB"/>
<rect width="72" height="14.9564" rx="7.4782" transform="matrix(6.97349e-08 -1 -1 -2.73993e-08 833.957 197)" fill="#5B69EB"/>
<rect width="545" height="121" rx="10" transform="matrix(-1 0 0 1 1062 15)" fill="#5B69EB"/>
<path d="M568.348 89.664H579.1V96H560.14V62.304H568.348V89.664ZM595.207 96.384C592.583 96.384 590.215 95.824 588.103 94.704C586.023 93.584 584.375 91.984 583.159 89.904C581.975 87.824 581.383 85.392 581.383 82.608C581.383 79.856 581.991 77.44 583.207 75.36C584.423 73.248 586.087 71.632 588.199 70.512C590.311 69.392 592.679 68.832 595.303 68.832C597.927 68.832 600.295 69.392 602.407 70.512C604.519 71.632 606.183 73.248 607.399 75.36C608.615 77.44 609.223 79.856 609.223 82.608C609.223 85.36 608.599 87.792 607.351 89.904C606.135 91.984 604.455 93.584 602.311 94.704C600.199 95.824 597.831 96.384 595.207 96.384ZM595.207 89.28C596.775 89.28 598.103 88.704 599.191 87.552C600.311 86.4 600.871 84.752 600.871 82.608C600.871 80.464 600.327 78.816 599.239 77.664C598.183 76.512 596.871 75.936 595.303 75.936C593.703 75.936 592.375 76.512 591.319 77.664C590.263 78.784 589.735 80.432 589.735 82.608C589.735 84.752 590.247 86.4 591.271 87.552C592.327 88.704 593.639 89.28 595.207 89.28ZM625.77 96.384C623.146 96.384 620.778 95.824 618.666 94.704C616.586 93.584 614.938 91.984 613.722 89.904C612.538 87.824 611.946 85.392 611.946 82.608C611.946 79.856 612.554 77.44 613.77 75.36C614.986 73.248 616.65 71.632 618.762 70.512C620.874 69.392 623.242 68.832 625.866 68.832C628.49 68.832 630.858 69.392 632.97 70.512C635.082 71.632 636.746 73.248 637.962 75.36C639.178 77.44 639.786 79.856 639.786 82.608C639.786 85.36 639.162 87.792 637.914 89.904C636.698 91.984 635.018 93.584 632.874 94.704C630.762 95.824 628.394 96.384 625.77 96.384ZM625.77 89.28C627.338 89.28 628.666 88.704 629.754 87.552C630.874 86.4 631.434 84.752 631.434 82.608C631.434 80.464 630.89 78.816 629.802 77.664C628.746 76.512 627.434 75.936 625.866 75.936C624.266 75.936 622.938 76.512 621.882 77.664C620.826 78.784 620.298 80.432 620.298 82.608C620.298 84.752 620.81 86.4 621.834 87.552C622.89 88.704 624.202 89.28 625.77 89.28ZM660.508 96L652.348 84.768V96H644.14V60.48H652.348V80.112L660.46 69.216H670.588L659.452 82.656L670.684 96H660.508ZM677.94 66.432C676.5 66.432 675.316 66.016 674.388 65.184C673.492 64.32 673.044 63.264 673.044 62.016C673.044 60.736 673.492 59.68 674.388 58.848C675.316 57.984 676.5 57.552 677.94 57.552C679.348 57.552 680.5 57.984 681.396 58.848C682.324 59.68 682.788 60.736 682.788 62.016C682.788 63.264 682.324 64.32 681.396 65.184C680.5 66.016 679.348 66.432 677.94 66.432ZM682.02 69.216V96H673.812V69.216H682.02ZM704.288 68.928C707.424 68.928 709.92 69.952 711.776 72C713.664 74.016 714.608 76.8 714.608 80.352V96H706.448V81.456C706.448 79.664 705.984 78.272 705.056 77.28C704.128 76.288 702.88 75.792 701.312 75.792C699.744 75.792 698.496 76.288 697.568 77.28C696.64 78.272 696.176 79.664 696.176 81.456V96H687.968V69.216H696.176V72.768C697.008 71.584 698.128 70.656 699.536 69.984C700.944 69.28 702.528 68.928 704.288 68.928ZM730.488 68.832C732.376 68.832 734.024 69.216 735.432 69.984C736.872 70.752 737.976 71.76 738.744 73.008V69.216H746.952V95.952C746.952 98.416 746.456 100.64 745.464 102.624C744.504 104.64 743.016 106.24 741 107.424C739.016 108.608 736.536 109.2 733.56 109.2C729.592 109.2 726.376 108.256 723.912 106.368C721.448 104.512 720.04 101.984 719.688 98.784H727.8C728.056 99.808 728.664 100.608 729.624 101.184C730.584 101.792 731.768 102.096 733.176 102.096C734.872 102.096 736.216 101.6 737.208 100.608C738.232 99.648 738.744 98.096 738.744 95.952V92.16C737.944 93.408 736.84 94.432 735.432 95.232C734.024 96 732.376 96.384 730.488 96.384C728.28 96.384 726.28 95.824 724.488 94.704C722.696 93.552 721.272 91.936 720.216 89.856C719.192 87.744 718.68 85.312 718.68 82.56C718.68 79.808 719.192 77.392 720.216 75.312C721.272 73.232 722.696 71.632 724.488 70.512C726.28 69.392 728.28 68.832 730.488 68.832ZM738.744 82.608C738.744 80.56 738.168 78.944 737.016 77.76C735.896 76.576 734.52 75.984 732.888 75.984C731.256 75.984 729.864 76.576 728.712 77.76C727.592 78.912 727.032 80.512 727.032 82.56C727.032 84.608 727.592 86.24 728.712 87.456C729.864 88.64 731.256 89.232 732.888 89.232C734.52 89.232 735.896 88.64 737.016 87.456C738.168 86.272 738.744 84.656 738.744 82.608ZM777.99 89.04V96H773.814C770.838 96 768.518 95.28 766.854 93.84C765.19 92.368 764.358 89.984 764.358 86.688V76.032H761.094V69.216H764.358V62.688H772.566V69.216H777.942V76.032H772.566V86.784C772.566 87.584 772.758 88.16 773.142 88.512C773.526 88.864 774.166 89.04 775.062 89.04H777.99ZM794.754 96.384C792.13 96.384 789.762 95.824 787.65 94.704C785.57 93.584 783.922 91.984 782.706 89.904C781.522 87.824 780.93 85.392 780.93 82.608C780.93 79.856 781.538 77.44 782.754 75.36C783.97 73.248 785.634 71.632 787.746 70.512C789.858 69.392 792.226 68.832 794.85 68.832C797.474 68.832 799.842 69.392 801.954 70.512C804.066 71.632 805.73 73.248 806.946 75.36C808.162 77.44 808.77 79.856 808.77 82.608C808.77 85.36 808.146 87.792 806.898 89.904C805.682 91.984 804.002 93.584 801.858 94.704C799.746 95.824 797.378 96.384 794.754 96.384ZM794.754 89.28C796.322 89.28 797.65 88.704 798.738 87.552C799.858 86.4 800.418 84.752 800.418 82.608C800.418 80.464 799.874 78.816 798.786 77.664C797.73 76.512 796.418 75.936 794.85 75.936C793.25 75.936 791.922 76.512 790.866 77.664C789.81 78.784 789.282 80.432 789.282 82.608C789.282 84.752 789.794 86.4 790.818 87.552C791.874 88.704 793.186 89.28 794.754 89.28ZM831.504 73.008C832.272 71.76 833.376 70.752 834.816 69.984C836.256 69.216 837.904 68.832 839.76 68.832C841.968 68.832 843.968 69.392 845.76 70.512C847.552 71.632 848.96 73.232 849.984 75.312C851.04 77.392 851.568 79.808 851.568 82.56C851.568 85.312 851.04 87.744 849.984 89.856C848.96 91.936 847.552 93.552 845.76 94.704C843.968 95.824 841.968 96.384 839.76 96.384C837.872 96.384 836.224 96.016 834.816 95.28C833.408 94.512 832.304 93.504 831.504 92.256V96H823.296V60.48H831.504V73.008ZM843.216 82.56C843.216 80.512 842.64 78.912 841.488 77.76C840.368 76.576 838.976 75.984 837.312 75.984C835.68 75.984 834.288 76.576 833.136 77.76C832.016 78.944 831.456 80.56 831.456 82.608C831.456 84.656 832.016 86.272 833.136 87.456C834.288 88.64 835.68 89.232 837.312 89.232C838.944 89.232 840.336 88.64 841.488 87.456C842.64 86.24 843.216 84.608 843.216 82.56ZM881.122 82.176C881.122 82.944 881.074 83.744 880.978 84.576H862.402C862.53 86.24 863.058 87.52 863.986 88.416C864.946 89.28 866.114 89.712 867.49 89.712C869.538 89.712 870.962 88.848 871.762 87.12H880.498C880.05 88.88 879.234 90.464 878.05 91.872C876.898 93.28 875.442 94.384 873.682 95.184C871.922 95.984 869.954 96.384 867.778 96.384C865.154 96.384 862.818 95.824 860.77 94.704C858.722 93.584 857.122 91.984 855.97 89.904C854.818 87.824 854.242 85.392 854.242 82.608C854.242 79.824 854.802 77.392 855.922 75.312C857.074 73.232 858.674 71.632 860.722 70.512C862.77 69.392 865.122 68.832 867.778 68.832C870.37 68.832 872.674 69.376 874.69 70.464C876.706 71.552 878.274 73.104 879.394 75.12C880.546 77.136 881.122 79.488 881.122 82.176ZM872.722 80.016C872.722 78.608 872.242 77.488 871.282 76.656C870.322 75.824 869.122 75.408 867.682 75.408C866.306 75.408 865.138 75.808 864.178 76.608C863.25 77.408 862.674 78.544 862.45 80.016H872.722ZM912.088 68.928C915.16 68.928 917.624 69.952 919.48 72C921.336 74.016 922.264 76.8 922.264 80.352V96H914.104V81.456C914.104 79.664 913.64 78.272 912.712 77.28C911.784 76.288 910.536 75.792 908.968 75.792C907.4 75.792 906.152 76.288 905.224 77.28C904.296 78.272 903.832 79.664 903.832 81.456V96H895.624V60.48H903.832V72.816C904.664 71.632 905.8 70.688 907.24 69.984C908.68 69.28 910.296 68.928 912.088 68.928ZM932.096 66.432C930.656 66.432 929.472 66.016 928.544 65.184C927.648 64.32 927.2 63.264 927.2 62.016C927.2 60.736 927.648 59.68 928.544 58.848C929.472 57.984 930.656 57.552 932.096 57.552C933.504 57.552 934.656 57.984 935.552 58.848C936.48 59.68 936.944 60.736 936.944 62.016C936.944 63.264 936.48 64.32 935.552 65.184C934.656 66.016 933.504 66.432 932.096 66.432ZM936.176 69.216V96H927.968V69.216H936.176ZM950.332 73.68C951.292 72.208 952.492 71.056 953.932 70.224C955.372 69.36 956.972 68.928 958.732 68.928V77.616H956.476C954.428 77.616 952.892 78.064 951.868 78.96C950.844 79.824 950.332 81.36 950.332 83.568V96H942.124V69.216H950.332V73.68ZM987.904 82.176C987.904 82.944 987.856 83.744 987.76 84.576H969.184C969.312 86.24 969.84 87.52 970.768 88.416C971.728 89.28 972.896 89.712 974.272 89.712C976.32 89.712 977.744 88.848 978.544 87.12H987.28C986.832 88.88 986.016 90.464 984.832 91.872C983.68 93.28 982.224 94.384 980.464 95.184C978.704 95.984 976.736 96.384 974.56 96.384C971.936 96.384 969.6 95.824 967.552 94.704C965.504 93.584 963.904 91.984 962.752 89.904C961.6 87.824 961.024 85.392 961.024 82.608C961.024 79.824 961.584 77.392 962.704 75.312C963.856 73.232 965.456 71.632 967.504 70.512C969.552 69.392 971.904 68.832 974.56 68.832C977.152 68.832 979.456 69.376 981.472 70.464C983.488 71.552 985.056 73.104 986.176 75.12C987.328 77.136 987.904 79.488 987.904 82.176ZM979.504 80.016C979.504 78.608 979.024 77.488 978.064 76.656C977.104 75.824 975.904 75.408 974.464 75.408C973.088 75.408 971.92 75.808 970.96 76.608C970.032 77.408 969.456 78.544 969.232 80.016H979.504ZM990.602 82.56C990.602 79.808 991.114 77.392 992.138 75.312C993.194 73.232 994.618 71.632 996.41 70.512C998.202 69.392 1000.2 68.832 1002.41 68.832C1004.17 68.832 1005.77 69.2 1007.21 69.936C1008.68 70.672 1009.83 71.664 1010.67 72.912V60.48H1018.87V96H1010.67V92.16C1009.9 93.44 1008.79 94.464 1007.35 95.232C1005.95 96 1004.3 96.384 1002.41 96.384C1000.2 96.384 998.202 95.824 996.41 94.704C994.618 93.552 993.194 91.936 992.138 89.856C991.114 87.744 990.602 85.312 990.602 82.56ZM1010.67 82.608C1010.67 80.56 1010.09 78.944 1008.94 77.76C1007.82 76.576 1006.44 75.984 1004.81 75.984C1003.18 75.984 1001.79 76.576 1000.63 77.76C999.514 78.912 998.954 80.512 998.954 82.56C998.954 84.608 999.514 86.24 1000.63 87.456C1001.79 88.64 1003.18 89.232 1004.81 89.232C1006.44 89.232 1007.82 88.64 1008.94 87.456C1010.09 86.272 1010.67 84.656 1010.67 82.608Z" fill="white"/>
</svg>
