<svg width="1489" height="234" viewBox="0 0 1489 234" fill="none" xmlns="http://www.w3.org/2000/svg">
<rect y="154" width="442" height="15" rx="5" fill="#EB625B"/>
<rect x="424.824" y="169" width="55" height="17.1762" rx="8.58808" transform="rotate(-90 424.824 169)" fill="#EB625B"/>
<rect y="190" width="840" height="15" rx="5" fill="#5B69EB"/>
<rect y="219" width="646" height="15" rx="5" fill="#39AABA"/>
<rect x="669" y="219" width="820" height="15" rx="5" fill="#FE891E"/>
<rect x="865" y="191" width="262" height="15" rx="5" fill="#63D72D"/>
<rect x="465" y="148" width="662" height="15" rx="5" fill="#21C7FB"/>
<rect x="223" width="423" height="121" rx="10" fill="#EB625B"/>
<path d="M265.801 70.664H276.553V77H257.593V43.304H265.801V70.664ZM292.66 77.384C290.036 77.384 287.668 76.824 285.556 75.704C283.476 74.584 281.828 72.984 280.612 70.904C279.428 68.824 278.836 66.392 278.836 63.608C278.836 60.856 279.444 58.44 280.66 56.36C281.876 54.248 283.54 52.632 285.652 51.512C287.764 50.392 290.132 49.832 292.756 49.832C295.38 49.832 297.748 50.392 299.86 51.512C301.972 52.632 303.636 54.248 304.852 56.36C306.068 58.44 306.676 60.856 306.676 63.608C306.676 66.36 306.052 68.792 304.804 70.904C303.588 72.984 301.908 74.584 299.764 75.704C297.652 76.824 295.284 77.384 292.66 77.384ZM292.66 70.28C294.228 70.28 295.556 69.704 296.644 68.552C297.764 67.4 298.324 65.752 298.324 63.608C298.324 61.464 297.78 59.816 296.692 58.664C295.636 57.512 294.324 56.936 292.756 56.936C291.156 56.936 289.828 57.512 288.772 58.664C287.716 59.784 287.188 61.432 287.188 63.608C287.188 65.752 287.7 67.4 288.724 68.552C289.78 69.704 291.092 70.28 292.66 70.28ZM323.223 77.384C320.599 77.384 318.231 76.824 316.119 75.704C314.039 74.584 312.391 72.984 311.175 70.904C309.991 68.824 309.399 66.392 309.399 63.608C309.399 60.856 310.007 58.44 311.223 56.36C312.439 54.248 314.103 52.632 316.215 51.512C318.327 50.392 320.695 49.832 323.319 49.832C325.943 49.832 328.311 50.392 330.423 51.512C332.535 52.632 334.199 54.248 335.415 56.36C336.631 58.44 337.239 60.856 337.239 63.608C337.239 66.36 336.615 68.792 335.367 70.904C334.151 72.984 332.471 74.584 330.327 75.704C328.215 76.824 325.847 77.384 323.223 77.384ZM323.223 70.28C324.791 70.28 326.119 69.704 327.207 68.552C328.327 67.4 328.887 65.752 328.887 63.608C328.887 61.464 328.343 59.816 327.255 58.664C326.199 57.512 324.887 56.936 323.319 56.936C321.719 56.936 320.391 57.512 319.335 58.664C318.279 59.784 317.751 61.432 317.751 63.608C317.751 65.752 318.263 67.4 319.287 68.552C320.343 69.704 321.655 70.28 323.223 70.28ZM357.961 77L349.801 65.768V77H341.593V41.48H349.801V61.112L357.913 50.216H368.041L356.905 63.656L368.137 77H357.961ZM375.393 47.432C373.953 47.432 372.769 47.016 371.841 46.184C370.945 45.32 370.497 44.264 370.497 43.016C370.497 41.736 370.945 40.68 371.841 39.848C372.769 38.984 373.953 38.552 375.393 38.552C376.801 38.552 377.953 38.984 378.849 39.848C379.777 40.68 380.241 41.736 380.241 43.016C380.241 44.264 379.777 45.32 378.849 46.184C377.953 47.016 376.801 47.432 375.393 47.432ZM379.473 50.216V77H371.265V50.216H379.473ZM401.741 49.928C404.877 49.928 407.373 50.952 409.229 53C411.117 55.016 412.061 57.8 412.061 61.352V77H403.901V62.456C403.901 60.664 403.437 59.272 402.509 58.28C401.581 57.288 400.333 56.792 398.765 56.792C397.197 56.792 395.949 57.288 395.021 58.28C394.093 59.272 393.629 60.664 393.629 62.456V77H385.421V50.216H393.629V53.768C394.461 52.584 395.581 51.656 396.989 50.984C398.397 50.28 399.981 49.928 401.741 49.928ZM427.941 49.832C429.829 49.832 431.477 50.216 432.885 50.984C434.325 51.752 435.429 52.76 436.197 54.008V50.216H444.405V76.952C444.405 79.416 443.909 81.64 442.917 83.624C441.957 85.64 440.469 87.24 438.453 88.424C436.469 89.608 433.989 90.2 431.013 90.2C427.045 90.2 423.829 89.256 421.365 87.368C418.901 85.512 417.493 82.984 417.141 79.784H425.253C425.509 80.808 426.117 81.608 427.077 82.184C428.037 82.792 429.221 83.096 430.629 83.096C432.325 83.096 433.669 82.6 434.661 81.608C435.685 80.648 436.197 79.096 436.197 76.952V73.16C435.397 74.408 434.293 75.432 432.885 76.232C431.477 77 429.829 77.384 427.941 77.384C425.733 77.384 423.733 76.824 421.941 75.704C420.149 74.552 418.725 72.936 417.669 70.856C416.645 68.744 416.133 66.312 416.133 63.56C416.133 60.808 416.645 58.392 417.669 56.312C418.725 54.232 420.149 52.632 421.941 51.512C423.733 50.392 425.733 49.832 427.941 49.832ZM436.197 63.608C436.197 61.56 435.621 59.944 434.469 58.76C433.349 57.576 431.973 56.984 430.341 56.984C428.709 56.984 427.317 57.576 426.165 58.76C425.045 59.912 424.485 61.512 424.485 63.56C424.485 65.608 425.045 67.24 426.165 68.456C427.317 69.64 428.709 70.232 430.341 70.232C431.973 70.232 433.349 69.64 434.469 68.456C435.621 67.272 436.197 65.656 436.197 63.608ZM475.443 70.04V77H471.267C468.291 77 465.971 76.28 464.307 74.84C462.643 73.368 461.811 70.984 461.811 67.688V57.032H458.547V50.216H461.811V43.688H470.019V50.216H475.395V57.032H470.019V67.784C470.019 68.584 470.211 69.16 470.595 69.512C470.979 69.864 471.619 70.04 472.515 70.04H475.443ZM492.207 77.384C489.583 77.384 487.215 76.824 485.103 75.704C483.023 74.584 481.375 72.984 480.159 70.904C478.975 68.824 478.383 66.392 478.383 63.608C478.383 60.856 478.991 58.44 480.207 56.36C481.423 54.248 483.087 52.632 485.199 51.512C487.311 50.392 489.679 49.832 492.303 49.832C494.927 49.832 497.295 50.392 499.407 51.512C501.519 52.632 503.183 54.248 504.399 56.36C505.615 58.44 506.223 60.856 506.223 63.608C506.223 66.36 505.599 68.792 504.351 70.904C503.135 72.984 501.455 74.584 499.311 75.704C497.199 76.824 494.831 77.384 492.207 77.384ZM492.207 70.28C493.775 70.28 495.103 69.704 496.191 68.552C497.311 67.4 497.871 65.752 497.871 63.608C497.871 61.464 497.327 59.816 496.239 58.664C495.183 57.512 493.871 56.936 492.303 56.936C490.703 56.936 489.375 57.512 488.319 58.664C487.263 59.784 486.735 61.432 486.735 63.608C486.735 65.752 487.247 67.4 488.271 68.552C489.327 69.704 490.639 70.28 492.207 70.28ZM537.213 49.928C540.285 49.928 542.749 50.952 544.605 53C546.461 55.016 547.389 57.8 547.389 61.352V77H539.229V62.456C539.229 60.664 538.765 59.272 537.837 58.28C536.909 57.288 535.661 56.792 534.093 56.792C532.525 56.792 531.277 57.288 530.349 58.28C529.421 59.272 528.957 60.664 528.957 62.456V77H520.749V41.48H528.957V53.816C529.789 52.632 530.925 51.688 532.365 50.984C533.805 50.28 535.421 49.928 537.213 49.928ZM557.221 47.432C555.781 47.432 554.597 47.016 553.669 46.184C552.773 45.32 552.325 44.264 552.325 43.016C552.325 41.736 552.773 40.68 553.669 39.848C554.597 38.984 555.781 38.552 557.221 38.552C558.629 38.552 559.781 38.984 560.677 39.848C561.605 40.68 562.069 41.736 562.069 43.016C562.069 44.264 561.605 45.32 560.677 46.184C559.781 47.016 558.629 47.432 557.221 47.432ZM561.301 50.216V77H553.093V50.216H561.301ZM575.457 54.68C576.417 53.208 577.617 52.056 579.057 51.224C580.497 50.36 582.097 49.928 583.857 49.928V58.616H581.601C579.553 58.616 578.017 59.064 576.993 59.96C575.969 60.824 575.457 62.36 575.457 64.568V77H567.249V50.216H575.457V54.68ZM613.029 63.176C613.029 63.944 612.981 64.744 612.885 65.576H594.309C594.437 67.24 594.965 68.52 595.893 69.416C596.853 70.28 598.021 70.712 599.397 70.712C601.445 70.712 602.869 69.848 603.669 68.12H612.405C611.957 69.88 611.141 71.464 609.957 72.872C608.805 74.28 607.349 75.384 605.589 76.184C603.829 76.984 601.861 77.384 599.685 77.384C597.061 77.384 594.725 76.824 592.677 75.704C590.629 74.584 589.029 72.984 587.877 70.904C586.725 68.824 586.149 66.392 586.149 63.608C586.149 60.824 586.709 58.392 587.829 56.312C588.981 54.232 590.581 52.632 592.629 51.512C594.677 50.392 597.029 49.832 599.685 49.832C602.277 49.832 604.581 50.376 606.597 51.464C608.613 52.552 610.181 54.104 611.301 56.12C612.453 58.136 613.029 60.488 613.029 63.176ZM604.629 61.016C604.629 59.608 604.149 58.488 603.189 57.656C602.229 56.824 601.029 56.408 599.589 56.408C598.213 56.408 597.045 56.808 596.085 57.608C595.157 58.408 594.581 59.544 594.357 61.016H604.629Z" fill="white"/>
<rect width="337" height="15" rx="5" transform="matrix(-1 0 0 1 1489 183)" fill="#5B69EB"/>
<rect width="72" height="14.6948" rx="7.34739" transform="matrix(6.85151e-08 -1 -1 -2.78871e-08 1166.69 198)" fill="#5B69EB"/>
<rect width="545" height="121" rx="10" transform="matrix(-1 0 0 1 1395 16)" fill="#5B69EB"/>
<path d="M901.348 90.664H912.1V97H893.14V63.304H901.348V90.664ZM928.207 97.384C925.583 97.384 923.215 96.824 921.103 95.704C919.023 94.584 917.375 92.984 916.159 90.904C914.975 88.824 914.383 86.392 914.383 83.608C914.383 80.856 914.991 78.44 916.207 76.36C917.423 74.248 919.087 72.632 921.199 71.512C923.311 70.392 925.679 69.832 928.303 69.832C930.927 69.832 933.295 70.392 935.407 71.512C937.519 72.632 939.183 74.248 940.399 76.36C941.615 78.44 942.223 80.856 942.223 83.608C942.223 86.36 941.599 88.792 940.351 90.904C939.135 92.984 937.455 94.584 935.311 95.704C933.199 96.824 930.831 97.384 928.207 97.384ZM928.207 90.28C929.775 90.28 931.103 89.704 932.191 88.552C933.311 87.4 933.871 85.752 933.871 83.608C933.871 81.464 933.327 79.816 932.239 78.664C931.183 77.512 929.871 76.936 928.303 76.936C926.703 76.936 925.375 77.512 924.319 78.664C923.263 79.784 922.735 81.432 922.735 83.608C922.735 85.752 923.247 87.4 924.271 88.552C925.327 89.704 926.639 90.28 928.207 90.28ZM958.77 97.384C956.146 97.384 953.778 96.824 951.666 95.704C949.586 94.584 947.938 92.984 946.722 90.904C945.538 88.824 944.946 86.392 944.946 83.608C944.946 80.856 945.554 78.44 946.77 76.36C947.986 74.248 949.65 72.632 951.762 71.512C953.874 70.392 956.242 69.832 958.866 69.832C961.49 69.832 963.858 70.392 965.97 71.512C968.082 72.632 969.746 74.248 970.962 76.36C972.178 78.44 972.786 80.856 972.786 83.608C972.786 86.36 972.162 88.792 970.914 90.904C969.698 92.984 968.018 94.584 965.874 95.704C963.762 96.824 961.394 97.384 958.77 97.384ZM958.77 90.28C960.338 90.28 961.666 89.704 962.754 88.552C963.874 87.4 964.434 85.752 964.434 83.608C964.434 81.464 963.89 79.816 962.802 78.664C961.746 77.512 960.434 76.936 958.866 76.936C957.266 76.936 955.938 77.512 954.882 78.664C953.826 79.784 953.298 81.432 953.298 83.608C953.298 85.752 953.81 87.4 954.834 88.552C955.89 89.704 957.202 90.28 958.77 90.28ZM993.508 97L985.348 85.768V97H977.14V61.48H985.348V81.112L993.46 70.216H1003.59L992.452 83.656L1003.68 97H993.508ZM1010.94 67.432C1009.5 67.432 1008.32 67.016 1007.39 66.184C1006.49 65.32 1006.04 64.264 1006.04 63.016C1006.04 61.736 1006.49 60.68 1007.39 59.848C1008.32 58.984 1009.5 58.552 1010.94 58.552C1012.35 58.552 1013.5 58.984 1014.4 59.848C1015.32 60.68 1015.79 61.736 1015.79 63.016C1015.79 64.264 1015.32 65.32 1014.4 66.184C1013.5 67.016 1012.35 67.432 1010.94 67.432ZM1015.02 70.216V97H1006.81V70.216H1015.02ZM1037.29 69.928C1040.42 69.928 1042.92 70.952 1044.78 73C1046.66 75.016 1047.61 77.8 1047.61 81.352V97H1039.45V82.456C1039.45 80.664 1038.98 79.272 1038.06 78.28C1037.13 77.288 1035.88 76.792 1034.31 76.792C1032.74 76.792 1031.5 77.288 1030.57 78.28C1029.64 79.272 1029.18 80.664 1029.18 82.456V97H1020.97V70.216H1029.18V73.768C1030.01 72.584 1031.13 71.656 1032.54 70.984C1033.94 70.28 1035.53 69.928 1037.29 69.928ZM1063.49 69.832C1065.38 69.832 1067.02 70.216 1068.43 70.984C1069.87 71.752 1070.98 72.76 1071.74 74.008V70.216H1079.95V96.952C1079.95 99.416 1079.46 101.64 1078.46 103.624C1077.5 105.64 1076.02 107.24 1074 108.424C1072.02 109.608 1069.54 110.2 1066.56 110.2C1062.59 110.2 1059.38 109.256 1056.91 107.368C1054.45 105.512 1053.04 102.984 1052.69 99.784H1060.8C1061.06 100.808 1061.66 101.608 1062.62 102.184C1063.58 102.792 1064.77 103.096 1066.18 103.096C1067.87 103.096 1069.22 102.6 1070.21 101.608C1071.23 100.648 1071.74 99.096 1071.74 96.952V93.16C1070.94 94.408 1069.84 95.432 1068.43 96.232C1067.02 97 1065.38 97.384 1063.49 97.384C1061.28 97.384 1059.28 96.824 1057.49 95.704C1055.7 94.552 1054.27 92.936 1053.22 90.856C1052.19 88.744 1051.68 86.312 1051.68 83.56C1051.68 80.808 1052.19 78.392 1053.22 76.312C1054.27 74.232 1055.7 72.632 1057.49 71.512C1059.28 70.392 1061.28 69.832 1063.49 69.832ZM1071.74 83.608C1071.74 81.56 1071.17 79.944 1070.02 78.76C1068.9 77.576 1067.52 76.984 1065.89 76.984C1064.26 76.984 1062.86 77.576 1061.71 78.76C1060.59 79.912 1060.03 81.512 1060.03 83.56C1060.03 85.608 1060.59 87.24 1061.71 88.456C1062.86 89.64 1064.26 90.232 1065.89 90.232C1067.52 90.232 1068.9 89.64 1070.02 88.456C1071.17 87.272 1071.74 85.656 1071.74 83.608ZM1110.99 90.04V97H1106.81C1103.84 97 1101.52 96.28 1099.85 94.84C1098.19 93.368 1097.36 90.984 1097.36 87.688V77.032H1094.09V70.216H1097.36V63.688H1105.57V70.216H1110.94V77.032H1105.57V87.784C1105.57 88.584 1105.76 89.16 1106.14 89.512C1106.53 89.864 1107.17 90.04 1108.06 90.04H1110.99ZM1127.75 97.384C1125.13 97.384 1122.76 96.824 1120.65 95.704C1118.57 94.584 1116.92 92.984 1115.71 90.904C1114.52 88.824 1113.93 86.392 1113.93 83.608C1113.93 80.856 1114.54 78.44 1115.75 76.36C1116.97 74.248 1118.63 72.632 1120.75 71.512C1122.86 70.392 1125.23 69.832 1127.85 69.832C1130.47 69.832 1132.84 70.392 1134.95 71.512C1137.07 72.632 1138.73 74.248 1139.95 76.36C1141.16 78.44 1141.77 80.856 1141.77 83.608C1141.77 86.36 1141.15 88.792 1139.9 90.904C1138.68 92.984 1137 94.584 1134.86 95.704C1132.75 96.824 1130.38 97.384 1127.75 97.384ZM1127.75 90.28C1129.32 90.28 1130.65 89.704 1131.74 88.552C1132.86 87.4 1133.42 85.752 1133.42 83.608C1133.42 81.464 1132.87 79.816 1131.79 78.664C1130.73 77.512 1129.42 76.936 1127.85 76.936C1126.25 76.936 1124.92 77.512 1123.87 78.664C1122.81 79.784 1122.28 81.432 1122.28 83.608C1122.28 85.752 1122.79 87.4 1123.82 88.552C1124.87 89.704 1126.19 90.28 1127.75 90.28ZM1164.5 74.008C1165.27 72.76 1166.38 71.752 1167.82 70.984C1169.26 70.216 1170.9 69.832 1172.76 69.832C1174.97 69.832 1176.97 70.392 1178.76 71.512C1180.55 72.632 1181.96 74.232 1182.98 76.312C1184.04 78.392 1184.57 80.808 1184.57 83.56C1184.57 86.312 1184.04 88.744 1182.98 90.856C1181.96 92.936 1180.55 94.552 1178.76 95.704C1176.97 96.824 1174.97 97.384 1172.76 97.384C1170.87 97.384 1169.22 97.016 1167.82 96.28C1166.41 95.512 1165.3 94.504 1164.5 93.256V97H1156.3V61.48H1164.5V74.008ZM1176.22 83.56C1176.22 81.512 1175.64 79.912 1174.49 78.76C1173.37 77.576 1171.98 76.984 1170.31 76.984C1168.68 76.984 1167.29 77.576 1166.14 78.76C1165.02 79.944 1164.46 81.56 1164.46 83.608C1164.46 85.656 1165.02 87.272 1166.14 88.456C1167.29 89.64 1168.68 90.232 1170.31 90.232C1171.94 90.232 1173.34 89.64 1174.49 88.456C1175.64 87.24 1176.22 85.608 1176.22 83.56ZM1214.12 83.176C1214.12 83.944 1214.07 84.744 1213.98 85.576H1195.4C1195.53 87.24 1196.06 88.52 1196.99 89.416C1197.95 90.28 1199.11 90.712 1200.49 90.712C1202.54 90.712 1203.96 89.848 1204.76 88.12H1213.5C1213.05 89.88 1212.23 91.464 1211.05 92.872C1209.9 94.28 1208.44 95.384 1206.68 96.184C1204.92 96.984 1202.95 97.384 1200.78 97.384C1198.15 97.384 1195.82 96.824 1193.77 95.704C1191.72 94.584 1190.12 92.984 1188.97 90.904C1187.82 88.824 1187.24 86.392 1187.24 83.608C1187.24 80.824 1187.8 78.392 1188.92 76.312C1190.07 74.232 1191.67 72.632 1193.72 71.512C1195.77 70.392 1198.12 69.832 1200.78 69.832C1203.37 69.832 1205.67 70.376 1207.69 71.464C1209.71 72.552 1211.27 74.104 1212.39 76.12C1213.55 78.136 1214.12 80.488 1214.12 83.176ZM1205.72 81.016C1205.72 79.608 1205.24 78.488 1204.28 77.656C1203.32 76.824 1202.12 76.408 1200.68 76.408C1199.31 76.408 1198.14 76.808 1197.18 77.608C1196.25 78.408 1195.67 79.544 1195.45 81.016H1205.72ZM1245.09 69.928C1248.16 69.928 1250.62 70.952 1252.48 73C1254.34 75.016 1255.26 77.8 1255.26 81.352V97H1247.1V82.456C1247.1 80.664 1246.64 79.272 1245.71 78.28C1244.78 77.288 1243.54 76.792 1241.97 76.792C1240.4 76.792 1239.15 77.288 1238.22 78.28C1237.3 79.272 1236.83 80.664 1236.83 82.456V97H1228.62V61.48H1236.83V73.816C1237.66 72.632 1238.8 71.688 1240.24 70.984C1241.68 70.28 1243.3 69.928 1245.09 69.928ZM1265.1 67.432C1263.66 67.432 1262.47 67.016 1261.54 66.184C1260.65 65.32 1260.2 64.264 1260.2 63.016C1260.2 61.736 1260.65 60.68 1261.54 59.848C1262.47 58.984 1263.66 58.552 1265.1 58.552C1266.5 58.552 1267.66 58.984 1268.55 59.848C1269.48 60.68 1269.94 61.736 1269.94 63.016C1269.94 64.264 1269.48 65.32 1268.55 66.184C1267.66 67.016 1266.5 67.432 1265.1 67.432ZM1269.18 70.216V97H1260.97V70.216H1269.18ZM1283.33 74.68C1284.29 73.208 1285.49 72.056 1286.93 71.224C1288.37 70.36 1289.97 69.928 1291.73 69.928V78.616H1289.48C1287.43 78.616 1285.89 79.064 1284.87 79.96C1283.84 80.824 1283.33 82.36 1283.33 84.568V97H1275.12V70.216H1283.33V74.68ZM1320.9 83.176C1320.9 83.944 1320.86 84.744 1320.76 85.576H1302.18C1302.31 87.24 1302.84 88.52 1303.77 89.416C1304.73 90.28 1305.9 90.712 1307.27 90.712C1309.32 90.712 1310.74 89.848 1311.54 88.12H1320.28C1319.83 89.88 1319.02 91.464 1317.83 92.872C1316.68 94.28 1315.22 95.384 1313.46 96.184C1311.7 96.984 1309.74 97.384 1307.56 97.384C1304.94 97.384 1302.6 96.824 1300.55 95.704C1298.5 94.584 1296.9 92.984 1295.75 90.904C1294.6 88.824 1294.02 86.392 1294.02 83.608C1294.02 80.824 1294.58 78.392 1295.7 76.312C1296.86 74.232 1298.46 72.632 1300.5 71.512C1302.55 70.392 1304.9 69.832 1307.56 69.832C1310.15 69.832 1312.46 70.376 1314.47 71.464C1316.49 72.552 1318.06 74.104 1319.18 76.12C1320.33 78.136 1320.9 80.488 1320.9 83.176ZM1312.5 81.016C1312.5 79.608 1312.02 78.488 1311.06 77.656C1310.1 76.824 1308.9 76.408 1307.46 76.408C1306.09 76.408 1304.92 76.808 1303.96 77.608C1303.03 78.408 1302.46 79.544 1302.23 81.016H1312.5ZM1323.6 83.56C1323.6 80.808 1324.11 78.392 1325.14 76.312C1326.19 74.232 1327.62 72.632 1329.41 71.512C1331.2 70.392 1333.2 69.832 1335.41 69.832C1337.17 69.832 1338.77 70.2 1340.21 70.936C1341.68 71.672 1342.83 72.664 1343.67 73.912V61.48H1351.87V97H1343.67V93.16C1342.9 94.44 1341.79 95.464 1340.35 96.232C1338.95 97 1337.3 97.384 1335.41 97.384C1333.2 97.384 1331.2 96.824 1329.41 95.704C1327.62 94.552 1326.19 92.936 1325.14 90.856C1324.11 88.744 1323.6 86.312 1323.6 83.56ZM1343.67 83.608C1343.67 81.56 1343.09 79.944 1341.94 78.76C1340.82 77.576 1339.44 76.984 1337.81 76.984C1336.18 76.984 1334.79 77.576 1333.63 78.76C1332.51 79.912 1331.95 81.512 1331.95 83.56C1331.95 85.608 1332.51 87.24 1333.63 88.456C1334.79 89.64 1336.18 90.232 1337.81 90.232C1339.44 90.232 1340.82 89.64 1341.94 88.456C1343.09 87.272 1343.67 85.656 1343.67 83.608Z" fill="white"/>
</svg>
