<svg width="1444" height="832" viewBox="0 0 1444 832" fill="none" xmlns="http://www.w3.org/2000/svg">
<path d="M2 249.503C32.0826 290.978 57.8531 330.587 55.8182 385.544C54.8995 410.356 51.375 435.001 55.1948 459.769C60.7394 495.721 83.3342 517.967 110.779 536.814C148.756 562.893 198.496 562.732 229.325 601.901C241.243 617.044 247.603 637.033 255.091 654.919C264.711 677.899 272.673 701.548 281.792 724.744C291.027 748.234 302.004 774.309 317.532 793.667C339.351 820.866 382.217 821.755 411.247 809.234C466.513 785.397 501.221 718.866 527.299 664.62C554.217 608.626 587.671 556.348 619.558 503.537C636.438 475.581 653.95 453.779 682.104 438.449C726.59 414.227 776.156 406.424 825.273 403.142C860.942 400.758 896.606 405.48 932.182 401.224C966.832 397.078 1014.24 386.989 1046.26 379.566C1103.26 366.352 1150.02 355.262 1204.49 332.639C1273.69 303.899 1345.33 254.823 1381.12 181.483C1406.77 128.922 1424.32 71.9761 1442 16" stroke="#EB625B" stroke-width="3" stroke-linecap="round"/>
<path d="M2 235.503C32.0826 276.978 57.8531 316.587 55.8182 371.544C54.8995 396.356 51.375 421.001 55.1948 445.769C60.7394 481.721 83.3342 503.967 110.779 522.814C148.756 548.893 198.496 548.732 229.325 587.901C241.243 603.044 247.603 623.033 255.091 640.919C264.711 663.899 272.673 687.548 281.792 710.744C291.027 734.234 302.004 760.309 317.532 779.667C339.351 806.866 382.217 807.755 411.247 795.234C466.513 771.397 501.221 704.866 527.299 650.62C554.217 594.626 587.671 542.348 619.558 489.537C636.438 461.581 653.95 439.779 682.104 424.449C726.59 400.227 776.156 392.424 825.273 389.142C860.942 386.758 896.606 391.48 932.182 387.224C966.832 383.078 1014.24 372.989 1046.26 365.566C1103.26 352.352 1150.02 341.262 1204.49 318.639C1273.69 289.899 1345.33 240.823 1381.12 167.483C1406.77 114.922 1424.32 57.9761 1442 2" stroke="#21C7FB" stroke-width="3" stroke-linecap="round"/>
<path d="M2 262.503C32.0826 303.978 57.8531 343.587 55.8182 398.544C54.8995 423.356 51.375 448.001 55.1948 472.769C60.7394 508.721 83.3342 530.967 110.779 549.814C148.756 575.893 198.496 575.732 229.325 614.901C241.243 630.044 247.603 650.033 255.091 667.919C264.711 690.899 272.673 714.548 281.792 737.744C291.027 761.234 302.004 787.309 317.532 806.667C339.351 833.866 382.217 834.755 411.247 822.234C466.513 798.397 501.221 731.866 527.299 677.62C554.217 621.626 587.671 569.348 619.558 516.537C636.438 488.581 653.95 466.779 682.104 451.449C726.59 427.227 776.156 419.424 825.273 416.142C860.942 413.758 896.606 418.48 932.182 414.224C966.832 410.078 1014.24 399.989 1046.26 392.566C1103.26 379.352 1150.02 368.262 1204.49 345.639C1273.69 316.899 1345.33 267.823 1381.12 194.483C1406.77 141.922 1424.32 84.9761 1442 29" stroke="#63D72D" stroke-width="3" stroke-linecap="round"/>
<path d="M2 241.503C32.0826 282.978 57.8531 322.587 55.8182 377.544C54.8995 402.356 51.375 427.001 55.1948 451.769C60.7394 487.721 83.3342 509.967 110.779 528.814C148.756 554.893 198.496 554.732 229.325 593.901C241.243 609.044 247.603 629.033 255.091 646.919C264.711 669.899 272.673 693.548 281.792 716.744C291.027 740.234 302.004 766.309 317.532 785.667C339.351 812.866 382.217 813.755 411.247 801.234C466.513 777.397 501.221 710.866 527.299 656.62C554.217 600.626 587.671 548.348 619.558 495.537C636.438 467.581 653.95 445.779 682.104 430.449C726.59 406.227 776.156 398.424 825.273 395.142C860.942 392.758 896.606 397.48 932.182 393.224C966.831 389.078 1014.24 378.989 1046.26 371.566C1103.26 358.352 1150.02 347.262 1204.49 324.639C1273.69 295.899 1345.33 246.823 1381.12 173.483C1406.77 120.922 1424.32 63.9761 1442 8" stroke="#5B69EB" stroke-width="3" stroke-linecap="round"/>
</svg>
